<?xml version="1.0" encoding="UTF-8" standalone="no"?>
<!DOCTYPE svg PUBLIC "-//W3C//DTD SVG 1.1//EN" "http://www.w3.org/Graphics/SVG/1.1/DTD/svg11.dtd">
<svg xmlns="http://www.w3.org/2000/svg" version="1.1" viewBox="0 0 540 540">
  <path d="
  M 488.59 396.30
  C 491.15 396.25 493.96 395.73 496.17 395.77
  C 511.39 396.03 525.65 405.25 530.85 419.86
  Q 532.74 425.17 532.80 433.85
  Q 532.86 443.17 531.34 450.03
  C 528.38 463.36 518.58 468.99 506.50 472.96
  Q 487.22 479.28 467.92 485.55
  Q 457.51 488.92 447.06 492.16
  C 428.19 497.99 407.67 502.81 389.51 507.02
  C 384.79 508.11 382.48 509.65 378.22 512.97
  C 355.76 530.48 324.46 536.23 297.59 524.65
  Q 290.71 521.69 283.81 518.78
  C 279.56 516.99 263.26 517.16 258.29 519.37
  C 242.79 526.24 229.26 531.30 210.99 530.54
  C 191.08 529.70 175.75 521.93 160.54 509.67
  Q 158.46 507.99 155.40 507.30
  Q 134.83 502.65 114.42 497.37
  Q 105.13 494.96 95.14 492.02
  Q 56.60 480.67 28.84 470.90
  Q 16.17 466.44 11.20 454.08
  Q 9.91 450.87 9.30 445.65
  C 8.53 439.04 7.90 433.47 8.84 427.31
  C 11.00 413.23 19.87 402.35 33.38 397.85
  C 39.02 395.98 45.33 395.90 51.32 396.33
  A 1.08 1.08 0.0 0 0 52.48 395.18
  C 51.35 378.54 52.54 364.02 54.55 345.01
  Q 56.55 326.18 62.77 303.45
  C 77.36 250.17 110.15 201.94 154.40 169.07
  C 155.78 168.05 157.40 166.32 158.19 165.20
  Q 162.73 158.82 167.09 152.32
  C 197.48 106.97 227.69 61.48 258.34 16.31
  C 260.05 13.79 261.71 10.67 264.49 10.55
  Q 269.23 10.34 276.50 10.72
  C 278.54 10.83 279.33 11.12 280.57 12.85
  Q 284.57 18.44 288.40 24.12
  Q 310.73 57.28 332.75 90.64
  C 349.38 115.84 366.68 140.65 383.56 165.69
  C 384.99 167.82 387.62 169.92 390.13 171.75
  C 416.70 191.16 435.65 214.75 452.21 242.65
  C 479.00 287.78 489.17 343.97 488.08 395.79
  Q 488.07 396.32 488.59 396.30
  Z
  M 323.19 136.77
  C 321.01 132.60 318.76 128.15 316.04 124.31
  C 304.42 107.89 292.81 91.46 281.70 74.68
  Q 276.31 66.54 270.67 58.38
  A 0.58 0.58 0.0 0 0 269.71 58.38
  C 251.90 84.65 233.46 110.76 216.41 137.62
  Q 216.09 138.14 216.19 138.33
  A 1.13 1.12 -20.9 0 0 217.43 138.88
  C 229.18 136.11 241.59 133.28 253.50 132.55
  Q 274.62 131.26 295.64 133.16
  C 304.37 133.95 313.15 135.73 321.77 137.67
  Q 322.46 137.82 322.73 137.76
  Q 323.60 137.57 323.19 136.77
  Z
  M 384.52 436.79
  Q 412.75 429.49 438.95 417.10
  Q 453.94 410.01 467.38 401.12
  A 3.05 3.04 -15.4 0 0 468.74 398.74
  C 470.82 358.03 464.78 317.93 449.28 280.21
  C 421.97 213.74 362.12 160.20 289.00 151.74
  Q 287.80 151.60 283.39 151.58
  C 275.58 149.92 269.57 150.08 260.50 150.28
  Q 246.42 150.60 225.25 155.96
  Q 216.24 158.23 205.56 162.87
  C 121.05 199.53 74.09 283.20 71.69 372.51
  Q 71.33 385.76 71.46 398.82
  A 2.69 2.69 0.0 0 0 72.60 400.98
  Q 79.02 405.49 86.36 409.58
  Q 119.46 427.98 156.24 437.10
  C 186.29 444.55 218.80 448.72 248.25 450.02
  C 280.17 451.43 311.99 450.14 347.98 444.66
  Q 363.50 442.29 378.74 438.48
  Q 381.81 437.71 384.52 436.79
  Z
  M 49.90 451.27
  C 88.59 467.84 129.37 480.47 170.83 487.85
  Q 208.39 494.53 239.75 496.03
  Q 262.66 497.13 297.64 496.23
  C 310.34 495.90 322.56 494.82 335.00 493.53
  Q 380.14 488.83 423.70 476.43
  C 445.20 470.31 466.22 462.31 486.72 453.41
  Q 496.39 449.22 506.08 445.07
  Q 517.68 440.10 517.69 429.11
  Q 517.70 421.99 513.37 416.80
  C 506.90 409.05 493.94 407.71 485.88 413.56
  C 480.98 417.12 475.49 425.96 471.70 430.46
  C 463.26 440.49 451.86 446.85 439.47 452.69
  C 419.88 461.91 398.19 468.37 377.61 472.78
  C 360.20 476.52 348.76 478.30 330.30 480.68
  C 326.47 481.17 322.16 481.25 318.07 481.71
  Q 312.46 482.33 308.90 482.47
  C 300.81 482.80 292.44 483.52 284.70 483.62
  Q 260.23 483.94 253.50 483.53
  C 242.27 482.84 230.66 482.48 219.88 481.34
  C 182.11 477.36 144.31 470.91 108.57 456.72
  C 91.42 449.91 77.67 441.77 66.42 427.87
  Q 61.87 422.25 57.41 416.58
  C 46.59 402.83 23.38 411.76 23.52 428.96
  C 23.60 439.83 32.06 443.77 40.93 447.50
  Q 49.70 451.18 49.90 451.27
  Z" />
  <path d="
  M 229.4738 328.7375
  A 40.54 40.07 1.0 0 1 188.2407 368.0939
  A 40.54 40.07 1.0 0 1 148.4062 327.3225
  A 40.54 40.07 1.0 0 1 189.6393 287.9661
  A 40.54 40.07 1.0 0 1 229.4738 328.7375
  Z
  M 215.3246 326.6971
  A 14.35 14.13 27.1 0 0 208.9868 307.5813
  A 14.35 14.13 27.1 0 0 189.7754 313.6229
  A 14.35 14.13 27.1 0 0 196.1132 332.7387
  A 14.35 14.13 27.1 0 0 215.3246 326.6971
  Z" />
  <path d="
  M 391.1968 313.6413
  A 40.48 39.69 -20.7 0 1 367.3594 365.0778
  A 40.48 39.69 -20.7 0 1 315.4632 342.2587
  A 40.48 39.69 -20.7 0 1 339.3006 290.8222
  A 40.48 39.69 -20.7 0 1 391.1968 313.6413
  Z
  M 380.93 320.15
  A 14.38 14.38 0.0 0 0 366.55 305.77
  A 14.38 14.38 0.0 0 0 352.17 320.15
  A 14.38 14.38 0.0 0 0 366.55 334.53
  A 14.38 14.38 0.0 0 0 380.93 320.15
  Z" />
  <path d="
  M 242.35 400.67
  C 238.44 396.46 228.57 382.84 234.22 376.77
  C 236.35 374.48 240.78 374.34 243.02 376.77
  C 245.12 379.05 245.34 383.59 246.80 386.47
  C 253.59 399.86 270.11 404.49 282.94 396.40
  Q 290.18 391.84 292.40 384.91
  C 293.97 380.02 295.11 373.00 301.65 375.24
  Q 307.47 377.23 305.49 384.35
  C 297.60 412.71 262.39 422.30 242.35 400.67
  Z" />
  <style>
    path {
      fill: #131214
    }

    @media (prefers-color-scheme:dark) {
      path {
        fill: #f5f7f8
      }
    }
  </style>
</svg>